# xmcd CD database file
#
# Track frame offsets:
#	150
#	14040
#	30280
#	32735
#	47377
#	58825
#	71325
#	82179
#	95700
#	111420
#	136445
#	151690
#	169217
#	174825
#	198057
#	217122
#	240927
#	257645
#
# Disc length: 3675 seconds
#
# Revision: 4
# Processed by: cddbd v1.5.2PL0 Copyright (c) Steve Scherf et al.
# Submitted via: CDex 1.70beta2
#
DISCID=ee0e5912
DTITLE=Various Artist - Blues Brothers 2000 Soundtrack
DYEAR=2000
DGENRE=Blues
TTITLE0=The Paul Butterfield Blues Band - Born in Chicago
TTITLE1=Matt Guitar Murphy - The Blues Don't Bother Me
TTITLE2=John Popper - Harmonica Musings
TTITLE3=Dan Aykroyd, Lonnie Brooks, Junior Wells and The Blues Brothers Band - Cheaper to Keep Her
TTITLE4=The Blues Brother Band - Perry Mason Theme
TTITLE5=John Goodman, Dan Aykroyd, and The Blues Brother Band - Looking for a Fox
TTITLE6=The Blues Brother Band - Can't Turn You Loose
TTITLE7=Aretha Franklin and The Blues Brother Band - R-E-S-P-E-C-T
TTITLE8=Eddie Floyd, Weilson Pickett, Jonny Lang and The Blues Brother Band - 634-5789
TTITLE9=Blues Traveler - Maybe I'm Wrong
TTITLE10=Dan Aykroyd, John Goodman and The Blues Brother Band - Riders In the Sky (A Cowboy Legend)
TTITLE11=Taj Mahal, Sam Moore, Joe Morton Sharon Riley and The Faith Chorale - John the Revelator
TTITLE12=The Carl LaFong Trio - Let There Be Drums
TTITLE13=Dr. John and The Blues Brother Band - Season of the Witch
TTITLE14=Joe Morton, Dan Aykroyd, John Goodman, Paul Shaffer, Erykah Badu and The Blues Brother Band - Funky Nassau
TTITLE15=The Louisiana Gator Boys - How Blue Can You Get
TTITLE16=Jor Morton, Dan Aykroyd, John Goodman, J. Evan Bonifant and The Blues Brother Band - Turn on Your Love Light
TTITLE17=The Lousiana Gator Boys and The Blues Brother Band - New Orleans
EXTD=YEAR: 2000
EXTT0=
EXTT1=Matt Guitar Murphy
EXTT2=
EXTT3=
EXTT4=
EXTT5=
EXTT6=
EXTT7=
EXTT8=
EXTT9=
EXTT10=
EXTT11=
EXTT12=
EXTT13=
EXTT14=
EXTT15=
EXTT16=
EXTT17=
PLAYORDER=
